<mxfile host="app.diagrams.net" modified="2023-05-04T11:26:54.497Z" agent="Mozilla/5.0 (Windows NT 10.0; Win64; x64) AppleWebKit/537.36 (KHTML, like Gecko) Chrome/112.0.0.0 Safari/537.36" etag="kFH8D17bOIUli0h186K4" version="21.2.7" type="device">
  <diagram name="Page-1" id="nFxJ5-mKz6-rM4utUsRi">
    <mxGraphModel dx="1886" dy="870" grid="1" gridSize="10" guides="1" tooltips="1" connect="1" arrows="1" fold="1" page="1" pageScale="1" pageWidth="850" pageHeight="1100" math="0" shadow="0">
      <root>
        <mxCell id="0" />
        <mxCell id="1" parent="0" />
        <mxCell id="T-ejZg0DpBvQFuI8OKQq-12" style="edgeStyle=orthogonalEdgeStyle;rounded=0;orthogonalLoop=1;jettySize=auto;html=1;entryX=0.5;entryY=0;entryDx=0;entryDy=0;" parent="1" source="T-ejZg0DpBvQFuI8OKQq-1" target="T-ejZg0DpBvQFuI8OKQq-19" edge="1">
          <mxGeometry relative="1" as="geometry">
            <mxPoint x="300" y="440" as="targetPoint" />
          </mxGeometry>
        </mxCell>
        <mxCell id="T-ejZg0DpBvQFuI8OKQq-1" value="submit" style="rounded=0;whiteSpace=wrap;html=1;shadow=1;" parent="1" vertex="1">
          <mxGeometry x="240" y="420" width="120" height="50" as="geometry" />
        </mxCell>
        <mxCell id="T-ejZg0DpBvQFuI8OKQq-5" value="" style="edgeStyle=orthogonalEdgeStyle;rounded=0;orthogonalLoop=1;jettySize=auto;html=1;" parent="1" source="K7YdbIKKDCyXBbZ5TbvQ-2" target="T-ejZg0DpBvQFuI8OKQq-3" edge="1">
          <mxGeometry relative="1" as="geometry" />
        </mxCell>
        <mxCell id="T-ejZg0DpBvQFuI8OKQq-2" value="start" style="ellipse;whiteSpace=wrap;html=1;aspect=fixed;shadow=1;" parent="1" vertex="1">
          <mxGeometry x="277" y="69" width="46" height="46" as="geometry" />
        </mxCell>
        <mxCell id="T-ejZg0DpBvQFuI8OKQq-6" value="" style="edgeStyle=orthogonalEdgeStyle;rounded=0;orthogonalLoop=1;jettySize=auto;html=1;" parent="1" source="T-ejZg0DpBvQFuI8OKQq-3" target="T-ejZg0DpBvQFuI8OKQq-4" edge="1">
          <mxGeometry relative="1" as="geometry" />
        </mxCell>
        <mxCell id="K7YdbIKKDCyXBbZ5TbvQ-1" value="" style="edgeStyle=none;curved=1;rounded=0;orthogonalLoop=1;jettySize=auto;html=1;endArrow=open;startSize=14;endSize=14;sourcePerimeterSpacing=8;targetPerimeterSpacing=8;" edge="1" parent="1" source="T-ejZg0DpBvQFuI8OKQq-3" target="T-ejZg0DpBvQFuI8OKQq-10">
          <mxGeometry relative="1" as="geometry" />
        </mxCell>
        <mxCell id="T-ejZg0DpBvQFuI8OKQq-3" value="choose an operation from side bar panel" style="rounded=0;whiteSpace=wrap;html=1;shadow=1;" parent="1" vertex="1">
          <mxGeometry x="240" y="220" width="120" height="60" as="geometry" />
        </mxCell>
        <mxCell id="T-ejZg0DpBvQFuI8OKQq-7" value="" style="edgeStyle=orthogonalEdgeStyle;rounded=0;orthogonalLoop=1;jettySize=auto;html=1;" parent="1" source="T-ejZg0DpBvQFuI8OKQq-4" target="T-ejZg0DpBvQFuI8OKQq-1" edge="1">
          <mxGeometry relative="1" as="geometry" />
        </mxCell>
        <mxCell id="T-ejZg0DpBvQFuI8OKQq-4" value="Select as per fiunctionality" style="rounded=0;whiteSpace=wrap;html=1;shadow=1;" parent="1" vertex="1">
          <mxGeometry x="240" y="330" width="120" height="60" as="geometry" />
        </mxCell>
        <mxCell id="T-ejZg0DpBvQFuI8OKQq-10" value="Select Chart type&lt;br&gt;Select Aggregate function&lt;br&gt;select x-axis column&lt;br&gt;select&amp;nbsp; y-axis column&lt;br&gt;Select column to average&lt;span style=&quot;white-space: pre;&quot;&gt;	&lt;/span&gt;" style="shape=document;whiteSpace=wrap;html=1;boundedLbl=1;shadow=1;" parent="1" vertex="1">
          <mxGeometry x="390" y="180" width="160" height="140" as="geometry" />
        </mxCell>
        <mxCell id="T-ejZg0DpBvQFuI8OKQq-17" value="" style="edgeStyle=orthogonalEdgeStyle;rounded=0;orthogonalLoop=1;jettySize=auto;html=1;exitX=0.5;exitY=1;exitDx=0;exitDy=0;" parent="1" source="T-ejZg0DpBvQFuI8OKQq-19" target="T-ejZg0DpBvQFuI8OKQq-13" edge="1">
          <mxGeometry relative="1" as="geometry">
            <mxPoint x="240" y="470" as="sourcePoint" />
          </mxGeometry>
        </mxCell>
        <mxCell id="T-ejZg0DpBvQFuI8OKQq-22" style="edgeStyle=orthogonalEdgeStyle;rounded=0;orthogonalLoop=1;jettySize=auto;html=1;" parent="1" source="T-ejZg0DpBvQFuI8OKQq-13" target="T-ejZg0DpBvQFuI8OKQq-16" edge="1">
          <mxGeometry relative="1" as="geometry" />
        </mxCell>
        <mxCell id="T-ejZg0DpBvQFuI8OKQq-13" value="Data will be visualised in charts and will be aggregated&amp;nbsp;" style="rounded=0;whiteSpace=wrap;html=1;shadow=1;" parent="1" vertex="1">
          <mxGeometry x="240" y="630" width="140" height="50" as="geometry" />
        </mxCell>
        <mxCell id="T-ejZg0DpBvQFuI8OKQq-16" value="end" style="ellipse;whiteSpace=wrap;html=1;aspect=fixed;shadow=1;" parent="1" vertex="1">
          <mxGeometry x="270" y="710" width="60" height="60" as="geometry" />
        </mxCell>
        <mxCell id="T-ejZg0DpBvQFuI8OKQq-18" value="success" style="text;html=1;align=center;verticalAlign=middle;resizable=0;points=[];autosize=1;strokeColor=none;fillColor=none;" parent="1" vertex="1">
          <mxGeometry x="265" y="600" width="70" height="30" as="geometry" />
        </mxCell>
        <mxCell id="T-ejZg0DpBvQFuI8OKQq-20" style="edgeStyle=orthogonalEdgeStyle;rounded=0;orthogonalLoop=1;jettySize=auto;html=1;entryX=1.042;entryY=0.383;entryDx=0;entryDy=0;entryPerimeter=0;" parent="1" source="T-ejZg0DpBvQFuI8OKQq-19" target="T-ejZg0DpBvQFuI8OKQq-4" edge="1">
          <mxGeometry relative="1" as="geometry">
            <Array as="points">
              <mxPoint x="300" y="480" />
              <mxPoint x="460" y="480" />
              <mxPoint x="460" y="350" />
              <mxPoint x="365" y="350" />
            </Array>
          </mxGeometry>
        </mxCell>
        <mxCell id="T-ejZg0DpBvQFuI8OKQq-21" value="revise the operation" style="edgeLabel;html=1;align=center;verticalAlign=middle;resizable=0;points=[];" parent="T-ejZg0DpBvQFuI8OKQq-20" vertex="1" connectable="0">
          <mxGeometry x="0.1506" y="-2" relative="1" as="geometry">
            <mxPoint x="-2" y="-21" as="offset" />
          </mxGeometry>
        </mxCell>
        <mxCell id="T-ejZg0DpBvQFuI8OKQq-19" value="validate the datatype for the columns&amp;nbsp;" style="rhombus;whiteSpace=wrap;html=1;shadow=1;" parent="1" vertex="1">
          <mxGeometry x="250" y="490" width="100" height="100" as="geometry" />
        </mxCell>
        <mxCell id="K7YdbIKKDCyXBbZ5TbvQ-3" value="" style="edgeStyle=orthogonalEdgeStyle;rounded=0;orthogonalLoop=1;jettySize=auto;html=1;" edge="1" parent="1" source="T-ejZg0DpBvQFuI8OKQq-2" target="K7YdbIKKDCyXBbZ5TbvQ-2">
          <mxGeometry relative="1" as="geometry">
            <mxPoint x="300" y="115" as="sourcePoint" />
            <mxPoint x="300" y="210" as="targetPoint" />
          </mxGeometry>
        </mxCell>
        <mxCell id="K7YdbIKKDCyXBbZ5TbvQ-6" value="" style="edgeStyle=none;curved=1;rounded=0;orthogonalLoop=1;jettySize=auto;html=1;endArrow=open;startSize=14;endSize=14;sourcePerimeterSpacing=8;targetPerimeterSpacing=8;" edge="1" parent="1" source="K7YdbIKKDCyXBbZ5TbvQ-2" target="K7YdbIKKDCyXBbZ5TbvQ-5">
          <mxGeometry relative="1" as="geometry" />
        </mxCell>
        <mxCell id="K7YdbIKKDCyXBbZ5TbvQ-2" value="Drag and drop the file" style="rounded=0;whiteSpace=wrap;html=1;shadow=1;" vertex="1" parent="1">
          <mxGeometry x="240" y="140" width="120" height="60" as="geometry" />
        </mxCell>
        <mxCell id="K7YdbIKKDCyXBbZ5TbvQ-5" value="Already existing excel file being read" style="whiteSpace=wrap;html=1;rounded=0;shadow=1;" vertex="1" parent="1">
          <mxGeometry x="60" y="150" width="120" height="60" as="geometry" />
        </mxCell>
      </root>
    </mxGraphModel>
  </diagram>
</mxfile>
